<svg xmlns="http://www.w3.org/2000/svg" viewBox="0 0 256 256" width="256" height="256">
  <defs>
    <linearGradient id="g1_500" x1="0%" y1="0%" x2="100%" y2="0%">
      <stop offset="0%" stop-color="#ff7b54"/>
      <stop offset="100%" stop-color="#ff6b9d"/>
    </linearGradient>
  </defs>
  <g>
    <path d="M 46.00,88.00 L 46.00,87.12 C 49.75,87.12 51.62,85.80 55.38,85.80 C 59.12,85.80 61.00,83.05 64.75,83.05 C 68.50,83.05 70.38,80.85 74.12,80.85 C 77.88,80.85 79.75,78.98 83.50,78.98 C 87.25,78.98 89.12,77.88 92.88,77.88 C 96.62,77.88 98.50,77.00 102.25,77.00 C 106.00,77.00 107.88,77.44 111.62,77.44 C 115.38,77.44 117.25,78.32 121.00,78.32 C 124.75,78.32 126.62,77.88 130.38,77.88 C 134.12,77.88 136.00,77.22 139.75,77.22 C 143.50,77.22 145.38,78.10 149.12,78.10 C 152.88,78.10 154.75,79.42 158.50,79.42 C 162.25,79.42 164.12,81.40 167.88,81.40 C 171.62,81.40 173.50,83.82 177.25,83.82 C 181.00,83.82 182.88,86.02 186.62,86.02 C 190.38,86.02 192.25,87.34 196.00,87.34 A 0.66,0.66 0 0 1 196.00,88.66 L 196.00,88.66 C 192.25,88.66 190.38,89.98 186.62,89.98 C 182.88,89.98 181.00,92.18 177.25,92.18 C 173.50,92.18 171.62,94.60 167.88,94.60 C 164.12,94.60 162.25,96.58 158.50,96.58 C 154.75,96.58 152.88,97.90 149.12,97.90 C 145.38,97.90 143.50,98.78 139.75,98.78 C 136.00,98.78 134.12,98.12 130.38,98.12 C 126.62,98.12 124.75,97.68 121.00,97.68 C 117.25,97.68 115.38,98.56 111.62,98.56 C 107.88,98.56 106.00,99.00 102.25,99.00 C 98.50,99.00 96.62,98.12 92.88,98.12 C 89.12,98.12 87.25,97.02 83.50,97.02 C 79.75,97.02 77.88,95.15 74.12,95.15 C 70.38,95.15 68.50,92.95 64.75,92.95 C 61.00,92.95 59.12,90.20 55.38,90.20 C 51.62,90.20 49.75,88.88 46.00,88.88 A 0.88,0.88 0 0 1 46.00,87.12 Z" fill="url(#g1_500)" opacity="0.95" transform="rotate(-3 121.0 88.0)"/>
    <path d="M 53.00,128.00 L 53.00,127.30 C 56.75,127.30 58.62,117.50 62.38,117.50 C 66.12,117.50 68.00,124.50 71.75,124.50 C 75.50,124.50 77.38,126.32 81.12,126.32 C 84.88,126.32 86.75,115.68 90.50,115.68 C 94.25,115.68 96.12,123.10 99.88,123.10 C 103.62,123.10 105.50,125.90 109.25,125.90 C 113.00,125.90 114.88,114.00 118.62,114.00 C 122.38,114.00 124.25,123.80 128.00,123.80 C 131.75,123.80 133.62,126.60 137.38,126.60 C 141.12,126.60 143.00,116.80 146.75,116.80 C 150.50,116.80 152.38,124.92 156.12,124.92 C 159.88,124.92 161.75,118.90 165.50,118.90 C 169.25,118.90 171.12,125.48 174.88,125.48 C 178.62,125.48 180.50,120.30 184.25,120.30 C 188.00,120.30 189.88,126.32 193.62,126.32 C 197.38,126.32 199.25,127.30 203.00,127.30 A 0.70,0.70 0 0 1 203.00,128.70 L 203.00,128.70 C 199.25,128.70 197.38,129.68 193.62,129.68 C 189.88,129.68 188.00,135.70 184.25,135.70 C 180.50,135.70 178.62,130.52 174.88,130.52 C 171.12,130.52 169.25,137.10 165.50,137.10 C 161.75,137.10 159.88,131.08 156.12,131.08 C 152.38,131.08 150.50,139.20 146.75,139.20 C 143.00,139.20 141.12,129.40 137.38,129.40 C 133.62,129.40 131.75,132.20 128.00,132.20 C 124.25,132.20 122.38,142.00 118.62,142.00 C 114.88,142.00 113.00,130.10 109.25,130.10 C 105.50,130.10 103.62,132.90 99.88,132.90 C 96.12,132.90 94.25,140.32 90.50,140.32 C 86.75,140.32 84.88,129.68 81.12,129.68 C 77.38,129.68 75.50,131.50 71.75,131.50 C 68.00,131.50 66.12,138.50 62.38,138.50 C 58.62,138.50 56.75,128.70 53.00,128.70 A 0.70,0.70 0 0 1 53.00,127.30 Z" fill="#ff6b9d" opacity="1"/>
    <path d="M 60.00,166.50 L 60.00,165.36 C 63.75,165.36 65.62,163.65 69.38,163.65 C 73.12,163.65 75.00,161.56 78.75,161.56 C 82.50,161.56 84.38,159.66 88.12,159.66 C 91.88,159.66 93.75,158.14 97.50,158.14 C 101.25,158.14 103.12,157.47 106.88,157.47 C 110.62,157.47 112.50,158.71 116.25,158.71 C 120.00,158.71 121.88,160.61 125.62,160.61 C 129.38,160.61 131.25,161.94 135.00,161.94 C 138.75,161.94 140.62,160.99 144.38,160.99 C 148.12,160.99 150.00,159.09 153.75,159.09 C 157.50,159.09 159.38,157.76 163.12,157.76 C 166.88,157.76 168.75,158.14 172.50,158.14 C 176.25,158.14 178.12,159.85 181.88,159.85 C 185.62,159.85 187.50,161.94 191.25,161.94 C 195.00,161.94 196.88,164.12 200.62,164.12 C 204.38,164.12 206.25,165.55 210.00,165.55 A 0.95,0.95 0 0 1 210.00,167.45 L 210.00,167.45 C 206.25,167.45 204.38,168.88 200.62,168.88 C 196.88,168.88 195.00,171.06 191.25,171.06 C 187.50,171.06 185.62,173.15 181.88,173.15 C 178.12,173.15 176.25,174.86 172.50,174.86 C 168.75,174.86 166.88,175.24 163.12,175.24 C 159.38,175.24 157.50,173.91 153.75,173.91 C 150.00,173.91 148.12,172.01 144.38,172.01 C 140.62,172.01 138.75,171.06 135.00,171.06 C 131.25,171.06 129.38,172.39 125.62,172.39 C 121.88,172.39 120.00,174.29 116.25,174.29 C 112.50,174.29 110.62,175.53 106.88,175.53 C 103.12,175.53 101.25,174.86 97.50,174.86 C 93.75,174.86 91.88,173.34 88.12,173.34 C 84.38,173.34 82.50,171.44 78.75,171.44 C 75.00,171.44 73.12,169.35 69.38,169.35 C 65.62,169.35 63.75,167.64 60.00,167.64 A 1.14,1.14 0 0 1 60.00,165.36 Z" fill="#c084fc" opacity="0.7" transform="rotate(3 135.0 166.5)"/>
  </g>
</svg>