<svg xmlns="http://www.w3.org/2000/svg" viewBox="0 0 512 512" width="512" height="512">
  <defs>
    <linearGradient id="g1_1000" x1="0%" y1="0%" x2="100%" y2="0%">
      <stop offset="0%" stop-color="#ff7b54"/>
      <stop offset="100%" stop-color="#ff6b9d"/>
    </linearGradient>
  </defs>
  <g>
    <path d="M 92.00,176.00 L 92.00,174.24 C 99.50,174.24 103.25,171.60 110.75,171.60 C 118.25,171.60 122.00,166.10 129.50,166.10 C 137.00,166.10 140.75,161.70 148.25,161.70 C 155.75,161.70 159.50,157.96 167.00,157.96 C 174.50,157.96 178.25,155.76 185.75,155.76 C 193.25,155.76 197.00,154.00 204.50,154.00 C 212.00,154.00 215.75,154.88 223.25,154.88 C 230.75,154.88 234.50,156.64 242.00,156.64 C 249.50,156.64 253.25,155.76 260.75,155.76 C 268.25,155.76 272.00,154.44 279.50,154.44 C 287.00,154.44 290.75,156.20 298.25,156.20 C 305.75,156.20 309.50,158.84 317.00,158.84 C 324.50,158.84 328.25,162.80 335.75,162.80 C 343.25,162.80 347.00,167.64 354.50,167.64 C 362.00,167.64 365.75,172.04 373.25,172.04 C 380.75,172.04 384.50,174.68 392.00,174.68 A 1.32,1.32 0 0 1 392.00,177.32 L 392.00,177.32 C 384.50,177.32 380.75,179.96 373.25,179.96 C 365.75,179.96 362.00,184.36 354.50,184.36 C 347.00,184.36 343.25,189.20 335.75,189.20 C 328.25,189.20 324.50,193.16 317.00,193.16 C 309.50,193.16 305.75,195.80 298.25,195.80 C 290.75,195.80 287.00,197.56 279.50,197.56 C 272.00,197.56 268.25,196.24 260.75,196.24 C 253.25,196.24 249.50,195.36 242.00,195.36 C 234.50,195.36 230.75,197.12 223.25,197.12 C 215.75,197.12 212.00,198.00 204.50,198.00 C 197.00,198.00 193.25,196.24 185.75,196.24 C 178.25,196.24 174.50,194.04 167.00,194.04 C 159.50,194.04 155.75,190.30 148.25,190.30 C 140.75,190.30 137.00,185.90 129.50,185.90 C 122.00,185.90 118.25,180.40 110.75,180.40 C 103.25,180.40 99.50,177.76 92.00,177.76 A 1.76,1.76 0 0 1 92.00,174.24 Z" fill="url(#g1_1000)" opacity="0.95" transform="rotate(-3 242.0 176.0)"/>
    <path d="M 106.00,256.00 L 106.00,254.60 C 113.50,254.60 117.25,235.00 124.75,235.00 C 132.25,235.00 136.00,249.00 143.50,249.00 C 151.00,249.00 154.75,252.64 162.25,252.64 C 169.75,252.64 173.50,231.36 181.00,231.36 C 188.50,231.36 192.25,246.20 199.75,246.20 C 207.25,246.20 211.00,251.80 218.50,251.80 C 226.00,251.80 229.75,228.00 237.25,228.00 C 244.75,228.00 248.50,247.60 256.00,247.60 C 263.50,247.60 267.25,253.20 274.75,253.20 C 282.25,253.20 286.00,233.60 293.50,233.60 C 301.00,233.60 304.75,249.84 312.25,249.84 C 319.75,249.84 323.50,237.80 331.00,237.80 C 338.50,237.80 342.25,250.96 349.75,250.96 C 357.25,250.96 361.00,240.60 368.50,240.60 C 376.00,240.60 379.75,252.64 387.25,252.64 C 394.75,252.64 398.50,254.60 406.00,254.60 A 1.40,1.40 0 0 1 406.00,257.40 L 406.00,257.40 C 398.50,257.40 394.75,259.36 387.25,259.36 C 379.75,259.36 376.00,271.40 368.50,271.40 C 361.00,271.40 357.25,261.04 349.75,261.04 C 342.25,261.04 338.50,274.20 331.00,274.20 C 323.50,274.20 319.75,262.16 312.25,262.16 C 304.75,262.16 301.00,278.40 293.50,278.40 C 286.00,278.40 282.25,258.80 274.75,258.80 C 267.25,258.80 263.50,264.40 256.00,264.40 C 248.50,264.40 244.75,284.00 237.25,284.00 C 229.75,284.00 226.00,260.20 218.50,260.20 C 211.00,260.20 207.25,265.80 199.75,265.80 C 192.25,265.80 188.50,280.64 181.00,280.64 C 173.50,280.64 169.75,259.36 162.25,259.36 C 154.75,259.36 151.00,263.00 143.50,263.00 C 136.00,263.00 132.25,277.00 124.75,277.00 C 117.25,277.00 113.50,257.40 106.00,257.40 A 1.40,1.40 0 0 1 106.00,254.60 Z" fill="#ff6b9d" opacity="1"/>
    <path d="M 120.00,333.00 L 120.00,330.72 C 127.50,330.72 131.25,327.30 138.75,327.30 C 146.25,327.30 150.00,323.12 157.50,323.12 C 165.00,323.12 168.75,319.32 176.25,319.32 C 183.75,319.32 187.50,316.28 195.00,316.28 C 202.50,316.28 206.25,314.95 213.75,314.95 C 221.25,314.95 225.00,317.42 232.50,317.42 C 240.00,317.42 243.75,321.22 251.25,321.22 C 258.75,321.22 262.50,323.88 270.00,323.88 C 277.50,323.88 281.25,321.98 288.75,321.98 C 296.25,321.98 300.00,318.18 307.50,318.18 C 315.00,318.18 318.75,315.52 326.25,315.52 C 333.75,315.52 337.50,316.28 345.00,316.28 C 352.50,316.28 356.25,319.70 363.75,319.70 C 371.25,319.70 375.00,323.88 382.50,323.88 C 390.00,323.88 393.75,328.25 401.25,328.25 C 408.75,328.25 412.50,331.10 420.00,331.10 A 1.90,1.90 0 0 1 420.00,334.90 L 420.00,334.90 C 412.50,334.90 408.75,337.75 401.25,337.75 C 393.75,337.75 390.00,342.12 382.50,342.12 C 375.00,342.12 371.25,346.30 363.75,346.30 C 356.25,346.30 352.50,349.72 345.00,349.72 C 337.50,349.72 333.75,350.48 326.25,350.48 C 318.75,350.48 315.00,347.82 307.50,347.82 C 300.00,347.82 296.25,344.02 288.75,344.02 C 281.25,344.02 277.50,342.12 270.00,342.12 C 262.50,342.12 258.75,344.78 251.25,344.78 C 243.75,344.78 240.00,348.58 232.50,348.58 C 225.00,348.58 221.25,351.05 213.75,351.05 C 206.25,351.05 202.50,349.72 195.00,349.72 C 187.50,349.72 183.75,346.68 176.25,346.68 C 168.75,346.68 165.00,342.88 157.50,342.88 C 150.00,342.88 146.25,338.70 138.75,338.70 C 131.25,338.70 127.50,335.28 120.00,335.28 A 2.28,2.28 0 0 1 120.00,330.72 Z" fill="#c084fc" opacity="0.7" transform="rotate(3 270.0 333.0)"/>
  </g>
</svg>